<svg width="1304" height="519" viewBox="0 0 1304 519" fill="none" xmlns="http://www.w3.org/2000/svg">
<rect width="1304" height="519" fill="white"/>
<rect x="600" y="186" width="410" height="291" stroke="#E0E0E0" stroke-width="2"/>
<rect opacity="0.5" x="658" y="268" width="302" height="168" stroke="#33B1FF" stroke-width="2"/>
<rect opacity="0.3" x="650" y="260" width="302" height="168" stroke="#33B1FF" stroke-width="2"/>
<rect opacity="0.1" x="642" y="252" width="302" height="168" stroke="#33B1FF" stroke-width="2"/>
<rect x="666" y="275" width="302" height="168" fill="#F4F4F4" stroke="#33B1FF" stroke-width="2"/>
<rect opacity="0.5" x="1068" y="264" width="171" height="168" stroke="#08BDBA" stroke-width="2"/>
<rect opacity="0.3" x="1060" y="256" width="172" height="168" stroke="#08BDBA" stroke-width="2"/>
<rect opacity="0.1" x="1052" y="248" width="173" height="168" stroke="#08BDBA" stroke-width="2"/>
<rect x="1076" y="271" width="171" height="168" fill="#F4F4F4" stroke="#08BDBA" stroke-width="2"/>
<path d="M1135.64 328.12H1133.93V327.08C1136.25 326.632 1137.69 324.696 1137.69 321.416C1137.69 317.64 1135.77 315.64 1132.83 315.64C1129.9 315.64 1127.96 317.64 1127.96 321.416C1127.96 324.792 1129.52 326.76 1131.95 327.128V327.8C1131.95 329.096 1132.62 329.848 1134.09 329.848H1135.64V328.12ZM1132.83 325.32C1131.23 325.32 1130.2 324.184 1130.2 322.28V320.552C1130.2 318.648 1131.23 317.512 1132.83 317.512C1134.43 317.512 1135.45 318.648 1135.45 320.552V322.28C1135.45 324.184 1134.43 325.32 1132.83 325.32ZM1144.7 327H1146.75V318.648H1144.7V324.168C1144.7 325.064 1143.88 325.496 1143.07 325.496C1142.09 325.496 1141.66 324.872 1141.66 323.72V318.648H1139.61V323.928C1139.61 326.008 1140.57 327.192 1142.28 327.192C1143.66 327.192 1144.33 326.44 1144.62 325.608H1144.7V327ZM1151.18 327.192C1152.43 327.192 1153.34 326.632 1153.61 325.56H1153.71C1153.83 326.424 1154.38 327 1155.26 327H1156.39V325.368H1155.56V321.432C1155.56 319.528 1154.36 318.456 1152.11 318.456C1150.43 318.456 1149.45 319.096 1148.84 320.056L1150.06 321.144C1150.46 320.568 1151 320.088 1151.96 320.088C1153.05 320.088 1153.51 320.632 1153.51 321.56V322.168H1152.09C1149.82 322.168 1148.52 323.016 1148.52 324.728C1148.52 326.216 1149.48 327.192 1151.18 327.192ZM1151.87 325.704C1151.07 325.704 1150.6 325.368 1150.6 324.696V324.424C1150.6 323.768 1151.13 323.4 1152.2 323.4H1153.51V324.504C1153.51 325.288 1152.78 325.704 1151.87 325.704ZM1160.1 327V321.48C1160.1 320.584 1160.92 320.136 1161.76 320.136C1162.74 320.136 1163.14 320.744 1163.14 321.928V327H1165.19V321.72C1165.19 319.64 1164.23 318.456 1162.52 318.456C1161.22 318.456 1160.52 319.144 1160.18 320.04H1160.1V318.648H1158.05V327H1160.1ZM1170.07 327H1171.54V325.368H1169.95V320.28H1171.67V318.648H1169.95V316.36H1168.11V317.784C1168.11 318.36 1167.92 318.648 1167.31 318.648H1166.67V320.28H1167.91V324.872C1167.91 326.232 1168.66 327 1170.07 327ZM1178.43 327H1180.48V318.648H1178.43V324.168C1178.43 325.064 1177.62 325.496 1176.8 325.496C1175.83 325.496 1175.39 324.872 1175.39 323.72V318.648H1173.35V323.928C1173.35 326.008 1174.31 327.192 1176.02 327.192C1177.39 327.192 1178.07 326.44 1178.35 325.608H1178.43V327ZM1184.9 327V321.48C1184.9 320.584 1185.66 320.136 1186.45 320.136C1187.36 320.136 1187.79 320.728 1187.79 321.928V327H1189.84V321.48C1189.84 320.584 1190.59 320.136 1191.39 320.136C1192.3 320.136 1192.74 320.728 1192.74 321.928V327H1194.78V321.72C1194.78 319.64 1193.86 318.456 1192.22 318.456C1190.9 318.456 1189.97 319.208 1189.66 320.136H1189.63C1189.23 319.016 1188.35 318.456 1187.22 318.456C1185.97 318.456 1185.3 319.16 1184.98 320.04H1184.9V318.648H1182.85V327H1184.9ZM1124.54 349V344.744H1127.45C1129.52 344.744 1130.77 343.368 1130.77 341.288C1130.77 339.224 1129.52 337.832 1127.45 337.832H1122.43V349H1124.54ZM1124.54 339.672H1127.26C1128.08 339.672 1128.57 340.104 1128.57 340.92V341.656C1128.57 342.472 1128.08 342.92 1127.26 342.92H1124.54V339.672ZM1134.44 349V343.88C1134.44 342.968 1135.16 342.584 1136.54 342.584H1137.18V340.648H1136.73C1135.4 340.648 1134.73 341.496 1134.52 342.376H1134.44V340.648H1132.39V349H1134.44ZM1141.91 349.192C1144.31 349.192 1145.8 347.496 1145.8 344.808C1145.8 342.136 1144.31 340.456 1141.91 340.456C1139.53 340.456 1138.04 342.136 1138.04 344.808C1138.04 347.496 1139.53 349.192 1141.91 349.192ZM1141.91 347.544C1140.85 347.544 1140.18 346.856 1140.18 345.592V344.04C1140.18 342.792 1140.85 342.104 1141.91 342.104C1142.98 342.104 1143.65 342.792 1143.65 344.04V345.592C1143.65 346.856 1142.98 347.544 1141.91 347.544ZM1150.91 349.192C1152.53 349.192 1153.69 348.456 1154.24 346.984L1152.67 346.232C1152.37 346.984 1151.89 347.544 1150.91 347.544C1149.77 347.544 1149.2 346.76 1149.2 345.592V344.072C1149.2 342.904 1149.77 342.104 1150.91 342.104C1151.79 342.104 1152.32 342.616 1152.51 343.32L1154.19 342.568C1153.69 341.256 1152.59 340.456 1150.91 340.456C1148.45 340.456 1147.05 342.136 1147.05 344.808C1147.05 347.496 1148.45 349.192 1150.91 349.192ZM1159.11 349.192C1160.67 349.192 1161.88 348.6 1162.57 347.656L1161.47 346.424C1160.95 347.08 1160.35 347.56 1159.34 347.56C1157.99 347.56 1157.31 346.744 1157.31 345.544V345.336H1162.86V344.664C1162.86 342.376 1161.66 340.456 1159.05 340.456C1156.6 340.456 1155.18 342.168 1155.18 344.808C1155.18 347.48 1156.65 349.192 1159.11 349.192ZM1159.08 341.992C1160.14 341.992 1160.73 342.776 1160.73 343.928V344.072H1157.31V343.944C1157.31 342.792 1158.01 341.992 1159.08 341.992ZM1167.4 349.192C1169.48 349.192 1170.84 348.072 1170.84 346.456C1170.84 345.064 1169.96 344.248 1168.13 343.992L1167.28 343.88C1166.5 343.752 1166.2 343.496 1166.2 342.936C1166.2 342.424 1166.58 342.072 1167.46 342.072C1168.28 342.072 1168.98 342.456 1169.46 342.968L1170.66 341.768C1169.86 340.936 1169.03 340.456 1167.4 340.456C1165.49 340.456 1164.23 341.48 1164.23 343.096C1164.23 344.616 1165.22 345.4 1167.01 345.624L1167.84 345.736C1168.58 345.832 1168.87 346.136 1168.87 346.616C1168.87 347.208 1168.45 347.576 1167.48 347.576C1166.53 347.576 1165.8 347.144 1165.19 346.44L1163.94 347.656C1164.77 348.616 1165.81 349.192 1167.4 349.192ZM1175.27 349.192C1177.35 349.192 1178.71 348.072 1178.71 346.456C1178.71 345.064 1177.83 344.248 1176.01 343.992L1175.16 343.88C1174.38 343.752 1174.07 343.496 1174.07 342.936C1174.07 342.424 1174.46 342.072 1175.34 342.072C1176.15 342.072 1176.86 342.456 1177.34 342.968L1178.54 341.768C1177.74 340.936 1176.9 340.456 1175.27 340.456C1173.37 340.456 1172.1 341.48 1172.1 343.096C1172.1 344.616 1173.1 345.4 1174.89 345.624L1175.72 345.736C1176.46 345.832 1176.74 346.136 1176.74 346.616C1176.74 347.208 1176.33 347.576 1175.35 347.576C1174.41 347.576 1173.67 347.144 1173.06 346.44L1171.82 347.656C1172.65 348.616 1173.69 349.192 1175.27 349.192ZM1181.54 339.432C1182.38 339.432 1182.74 339 1182.74 338.408V338.088C1182.74 337.496 1182.38 337.064 1181.54 337.064C1180.7 337.064 1180.34 337.496 1180.34 338.088V338.408C1180.34 339 1180.7 339.432 1181.54 339.432ZM1180.52 349H1182.57V340.648H1180.52V349ZM1186.99 349V343.48C1186.99 342.584 1187.81 342.136 1188.65 342.136C1189.63 342.136 1190.03 342.744 1190.03 343.928V349H1192.08V343.72C1192.08 341.64 1191.12 340.456 1189.41 340.456C1188.11 340.456 1187.41 341.144 1187.07 342.04H1186.99V340.648H1184.94V349H1186.99ZM1201.88 349.704C1201.88 348.2 1201 347.32 1198.96 347.32H1196.72C1195.98 347.32 1195.63 347.112 1195.63 346.696C1195.63 346.328 1195.9 346.088 1196.22 345.944C1196.59 346.04 1197.02 346.088 1197.5 346.088C1199.77 346.088 1200.96 344.968 1200.96 343.288C1200.96 342.264 1200.52 341.448 1199.66 340.968V340.744H1201.44V339.176H1200.14C1199.37 339.176 1198.96 339.576 1198.96 340.392V340.664C1198.54 340.52 1198.01 340.456 1197.5 340.456C1195.24 340.456 1194.04 341.592 1194.04 343.288C1194.04 344.392 1194.56 345.256 1195.56 345.72V345.784C1194.76 345.96 1194.03 346.392 1194.03 347.256C1194.03 347.928 1194.41 348.472 1195.1 348.648V348.824C1194.17 348.968 1193.61 349.496 1193.61 350.424C1193.61 351.656 1194.68 352.392 1197.5 352.392C1200.7 352.392 1201.88 351.448 1201.88 349.704ZM1199.96 349.944C1199.96 350.648 1199.37 350.984 1198.04 350.984H1197.02C1195.74 350.984 1195.26 350.6 1195.26 349.96C1195.26 349.624 1195.39 349.32 1195.69 349.096H1198.54C1199.58 349.096 1199.96 349.416 1199.96 349.944ZM1197.5 344.696C1196.52 344.696 1196 344.248 1196 343.416V343.144C1196 342.296 1196.52 341.864 1197.5 341.864C1198.48 341.864 1199 342.296 1199 343.144V343.416C1199 344.248 1198.48 344.696 1197.5 344.696ZM1141.42 359.832V366.424C1141.42 369.704 1142.56 371.192 1145.69 371.192C1148.83 371.192 1150 369.704 1150 366.424V359.832H1147.92V366.696C1147.92 368.44 1147.31 369.32 1145.71 369.32C1144.11 369.32 1143.5 368.44 1143.5 366.696V359.832H1141.42ZM1154.47 371V365.48C1154.47 364.584 1155.28 364.136 1156.13 364.136C1157.11 364.136 1157.51 364.744 1157.51 365.928V371H1159.55V365.72C1159.55 363.64 1158.59 362.456 1156.88 362.456C1155.59 362.456 1154.88 363.144 1154.55 364.04H1154.47V362.648H1152.42V371H1154.47ZM1162.85 361.432C1163.68 361.432 1164.05 361 1164.05 360.408V360.088C1164.05 359.496 1163.68 359.064 1162.85 359.064C1162 359.064 1161.65 359.496 1161.65 360.088V360.408C1161.65 361 1162 361.432 1162.85 361.432ZM1161.82 371H1163.87V362.648H1161.82V371ZM1168.85 371H1170.33V369.368H1168.74V364.28H1170.45V362.648H1168.74V360.36H1166.9V361.784C1166.9 362.36 1166.71 362.648 1166.1 362.648H1165.46V364.28H1166.69V368.872C1166.69 370.232 1167.45 371 1168.85 371ZM1174.97 371.192C1177.05 371.192 1178.41 370.072 1178.41 368.456C1178.41 367.064 1177.53 366.248 1175.7 365.992L1174.85 365.88C1174.07 365.752 1173.77 365.496 1173.77 364.936C1173.77 364.424 1174.15 364.072 1175.03 364.072C1175.85 364.072 1176.55 364.456 1177.03 364.968L1178.23 363.768C1177.43 362.936 1176.6 362.456 1174.97 362.456C1173.06 362.456 1171.8 363.48 1171.8 365.096C1171.8 366.616 1172.79 367.4 1174.58 367.624L1175.41 367.736C1176.15 367.832 1176.44 368.136 1176.44 368.616C1176.44 369.208 1176.02 369.576 1175.05 369.576C1174.1 369.576 1173.37 369.144 1172.76 368.44L1171.51 369.656C1172.34 370.616 1173.38 371.192 1174.97 371.192ZM1137.63 388.008C1137.63 391.128 1138.94 393.848 1140.53 395.192H1141.74C1140.02 393.656 1138.83 390.952 1138.83 388.712V387.336C1138.83 385.096 1139.97 382.44 1141.74 380.84H1140.53C1138.9 382.232 1137.63 384.92 1137.63 388.008ZM1149.79 394.504H1148.08V393.144C1150.53 392.808 1152.06 390.824 1152.06 387.416C1152.06 383.672 1150.21 381.64 1147.33 381.64C1144.45 381.64 1142.59 383.672 1142.59 387.416C1142.59 390.92 1144.22 392.936 1146.8 393.176V394.312C1146.8 395.064 1147.26 395.624 1148.14 395.624H1149.79V394.504ZM1147.33 391.992C1145.39 391.992 1144.03 390.552 1144.03 388.344V386.488C1144.03 384.28 1145.39 382.84 1147.33 382.84C1149.26 382.84 1150.62 384.28 1150.62 386.488V388.344C1150.62 390.552 1149.26 391.992 1147.33 391.992ZM1155.82 393V388.232H1158.93C1160.93 388.232 1162.05 387 1162.05 385.032C1162.05 383.064 1160.93 381.832 1158.93 381.832H1154.48V393H1155.82ZM1155.82 383.016H1158.93C1159.98 383.016 1160.61 383.592 1160.61 384.616V385.448C1160.61 386.472 1159.98 387.048 1158.93 387.048H1155.82V383.016ZM1164.1 381.832V388.424C1164.1 391.672 1165.1 393.192 1168.07 393.192C1171.05 393.192 1172.14 391.672 1172.14 388.424V381.832H1170.79V388.744C1170.79 390.872 1170.1 391.992 1168.12 391.992C1166.14 391.992 1165.45 390.872 1165.45 388.744V381.832H1164.1ZM1177.38 393.192C1179.27 393.192 1180.44 392.216 1180.44 390.616C1180.44 389.368 1179.73 388.568 1177.91 388.296L1177.27 388.2C1176.24 388.04 1175.68 387.72 1175.68 386.92C1175.68 386.136 1176.24 385.64 1177.3 385.64C1178.36 385.64 1179.06 386.136 1179.43 386.648L1180.28 385.88C1179.6 385.048 1178.72 384.552 1177.4 384.552C1175.72 384.552 1174.45 385.352 1174.45 386.984C1174.45 388.52 1175.59 389.144 1177.11 389.368L1177.76 389.464C1178.85 389.624 1179.2 390.12 1179.2 390.76C1179.2 391.608 1178.56 392.104 1177.48 392.104C1176.44 392.104 1175.67 391.64 1175.03 390.84L1174.12 391.576C1174.85 392.552 1175.86 393.192 1177.38 393.192ZM1185.37 388.008C1185.37 384.92 1184.1 382.232 1182.47 380.84H1181.26C1183.03 382.44 1184.17 385.096 1184.17 387.336V388.712C1184.17 390.952 1182.98 393.656 1181.26 395.192H1182.47C1184.06 393.848 1185.37 391.128 1185.37 388.008Z" fill="#161616"/>
<rect x="455" y="41" width="103" height="436" stroke="#E0E0E0" stroke-width="2"/>
<rect x="233" y="109" width="180" height="62" fill="#F4F4F4" stroke="#0F62FE" stroke-width="2"/>
<path d="M276.887 146.12H275.175V145.08C277.495 144.632 278.935 142.696 278.935 139.416C278.935 135.64 277.015 133.64 274.071 133.64C271.143 133.64 269.207 135.64 269.207 139.416C269.207 142.792 270.759 144.76 273.191 145.128V145.8C273.191 147.096 273.863 147.848 275.335 147.848H276.887V146.12ZM274.071 143.32C272.471 143.32 271.447 142.184 271.447 140.28V138.552C271.447 136.648 272.471 135.512 274.071 135.512C275.671 135.512 276.695 136.648 276.695 138.552V140.28C276.695 142.184 275.671 143.32 274.071 143.32ZM281.974 135.432C282.806 135.432 283.174 135 283.174 134.408V134.088C283.174 133.496 282.806 133.064 281.974 133.064C281.126 133.064 280.774 133.496 280.774 134.088V134.408C280.774 135 281.126 135.432 281.974 135.432ZM280.95 145H282.998V136.648H280.95V145ZM288.108 145.192C290.188 145.192 291.548 144.072 291.548 142.456C291.548 141.064 290.668 140.248 288.844 139.992L287.996 139.88C287.212 139.752 286.908 139.496 286.908 138.936C286.908 138.424 287.292 138.072 288.172 138.072C288.988 138.072 289.692 138.456 290.172 138.968L291.372 137.768C290.572 136.936 289.74 136.456 288.108 136.456C286.204 136.456 284.94 137.48 284.94 139.096C284.94 140.616 285.932 141.4 287.724 141.624L288.556 141.736C289.292 141.832 289.58 142.136 289.58 142.616C289.58 143.208 289.164 143.576 288.188 143.576C287.244 143.576 286.508 143.144 285.9 142.44L284.652 143.656C285.484 144.616 286.524 145.192 288.108 145.192ZM293.356 145H295.404V142.456L296.508 141.256L298.652 145H301.084L297.9 139.88L300.78 136.648H298.46L296.588 138.792L295.484 140.296H295.404V133.16H293.356V145ZM303.364 135.432C304.196 135.432 304.564 135 304.564 134.408V134.088C304.564 133.496 304.196 133.064 303.364 133.064C302.516 133.064 302.164 133.496 302.164 134.088V134.408C302.164 135 302.516 135.432 303.364 135.432ZM302.34 145H304.388V136.648H302.34V145ZM309.37 145H310.842V143.368H309.258V138.28H310.97V136.648H309.258V134.36H307.418V135.784C307.418 136.36 307.226 136.648 306.618 136.648H305.978V138.28H307.21V142.872C307.21 144.232 307.962 145 309.37 145ZM318.768 145V140.744H321.68C323.744 140.744 324.992 139.368 324.992 137.288C324.992 135.224 323.744 133.832 321.68 133.832H316.656V145H318.768ZM318.768 135.672H321.488C322.304 135.672 322.8 136.104 322.8 136.92V137.656C322.8 138.472 322.304 138.92 321.488 138.92H318.768V135.672ZM328.67 145V139.88C328.67 138.968 329.39 138.584 330.766 138.584H331.406V136.648H330.958C329.63 136.648 328.958 137.496 328.75 138.376H328.67V136.648H326.622V145H328.67ZM336.137 145.192C338.537 145.192 340.025 143.496 340.025 140.808C340.025 138.136 338.537 136.456 336.137 136.456C333.753 136.456 332.265 138.136 332.265 140.808C332.265 143.496 333.753 145.192 336.137 145.192ZM336.137 143.544C335.081 143.544 334.409 142.856 334.409 141.592V140.04C334.409 138.792 335.081 138.104 336.137 138.104C337.209 138.104 337.881 138.792 337.881 140.04V141.592C337.881 142.856 337.209 143.544 336.137 143.544ZM349.376 145.704C349.376 144.2 348.496 143.32 346.448 143.32H344.208C343.472 143.32 343.12 143.112 343.12 142.696C343.12 142.328 343.392 142.088 343.712 141.944C344.08 142.04 344.512 142.088 344.992 142.088C347.264 142.088 348.448 140.968 348.448 139.288C348.448 138.264 348.016 137.448 347.152 136.968V136.744H348.928V135.176H347.632C346.864 135.176 346.448 135.576 346.448 136.392V136.664C346.032 136.52 345.504 136.456 344.992 136.456C342.736 136.456 341.536 137.592 341.536 139.288C341.536 140.392 342.048 141.256 343.056 141.72V141.784C342.256 141.96 341.52 142.392 341.52 143.256C341.52 143.928 341.904 144.472 342.592 144.648V144.824C341.664 144.968 341.104 145.496 341.104 146.424C341.104 147.656 342.176 148.392 344.992 148.392C348.192 148.392 349.376 147.448 349.376 145.704ZM347.456 145.944C347.456 146.648 346.864 146.984 345.536 146.984H344.512C343.232 146.984 342.752 146.6 342.752 145.96C342.752 145.624 342.88 145.32 343.184 145.096H346.032C347.072 145.096 347.456 145.416 347.456 145.944ZM344.992 140.696C344.016 140.696 343.488 140.248 343.488 139.416V139.144C343.488 138.296 344.016 137.864 344.992 137.864C345.968 137.864 346.496 138.296 346.496 139.144V139.416C346.496 140.248 345.968 140.696 344.992 140.696ZM352.607 145V139.88C352.607 138.968 353.327 138.584 354.703 138.584H355.343V136.648H354.895C353.567 136.648 352.895 137.496 352.687 138.376H352.607V136.648H350.559V145H352.607ZM358.732 145.192C359.98 145.192 360.892 144.632 361.164 143.56H361.26C361.388 144.424 361.932 145 362.812 145H363.948V143.368H363.116V139.432C363.116 137.528 361.916 136.456 359.66 136.456C357.98 136.456 357.004 137.096 356.396 138.056L357.612 139.144C358.012 138.568 358.556 138.088 359.516 138.088C360.604 138.088 361.068 138.632 361.068 139.56V140.168H359.644C357.372 140.168 356.076 141.016 356.076 142.728C356.076 144.216 357.036 145.192 358.732 145.192ZM359.42 143.704C358.62 143.704 358.156 143.368 358.156 142.696V142.424C358.156 141.768 358.684 141.4 359.756 141.4H361.068V142.504C361.068 143.288 360.332 143.704 359.42 143.704ZM367.654 145V139.48C367.654 138.584 368.422 138.136 369.206 138.136C370.118 138.136 370.55 138.728 370.55 139.928V145H372.598V139.48C372.598 138.584 373.35 138.136 374.15 138.136C375.062 138.136 375.494 138.728 375.494 139.928V145H377.542V139.72C377.542 137.64 376.614 136.456 374.982 136.456C373.654 136.456 372.726 137.208 372.422 138.136H372.39C371.99 137.016 371.11 136.456 369.974 136.456C368.726 136.456 368.054 137.16 367.734 138.04H367.654V136.648H365.606V145H367.654Z" fill="#161616"/>
<rect x="1" y="-1" width="217" height="62" transform="matrix(1 0 0 -1 691 102)" stroke="#E0E0E0" stroke-width="2"/>
<path d="M724.597 80.504H722.885V79.144C725.333 78.808 726.869 76.824 726.869 73.416C726.869 69.672 725.013 67.64 722.133 67.64C719.253 67.64 717.397 69.672 717.397 73.416C717.397 76.92 719.029 78.936 721.605 79.176V80.312C721.605 81.064 722.069 81.624 722.949 81.624H724.597V80.504ZM722.133 77.992C720.197 77.992 718.837 76.552 718.837 74.344V72.488C718.837 70.28 720.197 68.84 722.133 68.84C724.069 68.84 725.429 70.28 725.429 72.488V74.344C725.429 76.552 724.069 77.992 722.133 77.992ZM729.797 68.808C730.341 68.808 730.581 68.52 730.581 68.088V67.88C730.581 67.448 730.341 67.16 729.797 67.16C729.253 67.16 729.013 67.448 729.013 67.88V68.088C729.013 68.52 729.253 68.808 729.797 68.808ZM729.157 79H730.437V70.744H729.157V79ZM735.637 79.192C737.525 79.192 738.693 78.216 738.693 76.616C738.693 75.368 737.989 74.568 736.165 74.296L735.525 74.2C734.501 74.04 733.941 73.72 733.941 72.92C733.941 72.136 734.501 71.64 735.557 71.64C736.613 71.64 737.317 72.136 737.685 72.648L738.533 71.88C737.861 71.048 736.981 70.552 735.653 70.552C733.973 70.552 732.709 71.352 732.709 72.984C732.709 74.52 733.845 75.144 735.365 75.368L736.021 75.464C737.109 75.624 737.461 76.12 737.461 76.76C737.461 77.608 736.821 78.104 735.733 78.104C734.693 78.104 733.925 77.64 733.285 76.84L732.373 77.576C733.109 78.552 734.117 79.192 735.637 79.192ZM740.954 79H742.234V76.056L743.466 74.792L746.202 79H747.754L744.394 74.008L747.45 70.744H745.898L743.562 73.256L742.298 74.664H742.234V67.16H740.954V79ZM750.031 68.808C750.575 68.808 750.815 68.52 750.815 68.088V67.88C750.815 67.448 750.575 67.16 750.031 67.16C749.487 67.16 749.247 67.448 749.247 67.88V68.088C749.247 68.52 749.487 68.808 750.031 68.808ZM749.391 79H750.671V70.744H749.391V79ZM756.815 79V77.88H755.135V71.864H756.943V70.744H755.135V68.456H753.983V69.992C753.983 70.552 753.807 70.744 753.263 70.744H752.495V71.864H753.855V77.64C753.855 78.44 754.335 79 755.215 79H756.815ZM764.254 74.2H766.862L769.278 79H770.798L768.238 74.072C769.694 73.736 770.478 72.632 770.478 71C770.478 68.968 769.31 67.832 767.358 67.832H762.91V79H764.254V74.2ZM764.254 73.048V69.016H767.358C768.414 69.016 769.038 69.592 769.038 70.616V71.448C769.038 72.472 768.414 73.048 767.358 73.048H764.254ZM778.104 79H779.384V70.744H778.104V76.456C778.104 77.544 777.112 78.04 776.104 78.04C774.872 78.04 774.216 77.288 774.216 75.816V70.744H772.936V76.04C772.936 78.04 774.024 79.192 775.72 79.192C777.096 79.192 777.72 78.44 778.04 77.656H778.104V79ZM783.39 79V73.272C783.39 72.216 784.382 71.704 785.406 71.704C786.638 71.704 787.278 72.456 787.278 73.928V79H788.558V73.704C788.558 71.704 787.486 70.552 785.79 70.552C784.558 70.552 783.854 71.16 783.454 72.088H783.39V70.744H782.11V79H783.39ZM794.628 79V77.88H792.948V71.864H794.756V70.744H792.948V68.456H791.796V69.992C791.796 70.552 791.62 70.744 791.076 70.744H790.308V71.864H791.668V77.64C791.668 78.44 792.148 79 793.028 79H794.628ZM797.453 68.808C797.997 68.808 798.237 68.52 798.237 68.088V67.88C798.237 67.448 797.997 67.16 797.453 67.16C796.909 67.16 796.669 67.448 796.669 67.88V68.088C796.669 68.52 796.909 68.808 797.453 68.808ZM796.813 79H798.093V70.744H796.813V79ZM802.093 79V73.272C802.093 72.216 803.053 71.704 804.061 71.704C805.277 71.704 805.837 72.456 805.837 73.928V79H807.117V73.272C807.117 72.216 808.045 71.704 809.053 71.704C810.301 71.704 810.861 72.472 810.861 73.928V79H812.141V73.704C812.141 71.704 811.133 70.552 809.453 70.552C808.045 70.552 807.245 71.336 806.941 72.232H806.909C806.461 71.048 805.469 70.552 804.381 70.552C803.101 70.552 802.525 71.24 802.157 72.088H802.093V70.744H800.813V79H802.093ZM817.886 79.192C819.438 79.192 820.622 78.424 821.15 77.304L820.238 76.648C819.806 77.56 819.006 78.072 817.966 78.072C816.43 78.072 815.518 77 815.518 75.576V75.192H821.454V74.584C821.454 72.248 820.094 70.552 817.886 70.552C815.646 70.552 814.174 72.248 814.174 74.872C814.174 77.496 815.646 79.192 817.886 79.192ZM817.886 71.624C819.198 71.624 820.078 72.6 820.078 74.056V74.232H815.518V74.12C815.518 72.68 816.494 71.624 817.886 71.624ZM828.816 74.2H831.424L833.84 79H835.36L832.8 74.072C834.256 73.736 835.04 72.632 835.04 71C835.04 68.968 833.872 67.832 831.92 67.832H827.472V79H828.816V74.2ZM828.816 73.048V69.016H831.92C832.976 69.016 833.6 69.592 833.6 70.616V71.448C833.6 72.472 832.976 73.048 831.92 73.048H828.816ZM840.448 79.192C842 79.192 843.184 78.424 843.712 77.304L842.8 76.648C842.368 77.56 841.568 78.072 840.528 78.072C838.992 78.072 838.08 77 838.08 75.576V75.192H844.016V74.584C844.016 72.248 842.656 70.552 840.448 70.552C838.208 70.552 836.736 72.248 836.736 74.872C836.736 77.496 838.208 79.192 840.448 79.192ZM840.448 71.624C841.76 71.624 842.64 72.6 842.64 74.056V74.232H838.08V74.12C838.08 72.68 839.056 71.624 840.448 71.624ZM853.086 79.912C853.086 78.552 852.206 77.72 850.158 77.72H848.398C847.646 77.72 847.134 77.592 847.134 77.096C847.134 76.584 847.678 76.312 848.222 76.168C848.462 76.216 848.75 76.248 849.022 76.248C850.91 76.248 852.142 75.08 852.142 73.4C852.142 72.52 851.79 71.784 851.198 71.272V70.744H852.766V69.624H851.534C850.846 69.624 850.574 70.088 850.574 70.728V70.872C850.126 70.664 849.598 70.552 849.006 70.552C847.134 70.552 845.902 71.72 845.902 73.4C845.902 74.552 846.478 75.464 847.454 75.928V75.992C846.622 76.2 846.03 76.6 846.03 77.432C846.03 77.992 846.302 78.36 846.766 78.584V78.76C845.95 78.984 845.454 79.464 845.454 80.36C845.454 81.656 846.51 82.392 849.086 82.392C851.742 82.392 853.086 81.608 853.086 79.912ZM851.886 80.008C851.886 80.904 851.054 81.352 849.63 81.352H848.446C847.15 81.352 846.654 80.76 846.654 80.04C846.654 79.528 846.894 79.16 847.422 78.92H850.174C851.454 78.92 851.886 79.352 851.886 80.008ZM849.022 75.224C847.934 75.224 847.246 74.712 847.246 73.624V73.176C847.246 72.088 847.934 71.576 849.022 71.576C850.11 71.576 850.798 72.088 850.798 73.176V73.624C850.798 74.712 850.11 75.224 849.022 75.224ZM855.219 68.808C855.763 68.808 856.003 68.52 856.003 68.088V67.88C856.003 67.448 855.763 67.16 855.219 67.16C854.675 67.16 854.435 67.448 854.435 67.88V68.088C854.435 68.52 854.675 68.808 855.219 68.808ZM854.579 79H855.859V70.744H854.579V79ZM861.059 79.192C862.947 79.192 864.115 78.216 864.115 76.616C864.115 75.368 863.411 74.568 861.587 74.296L860.947 74.2C859.923 74.04 859.363 73.72 859.363 72.92C859.363 72.136 859.923 71.64 860.979 71.64C862.035 71.64 862.739 72.136 863.107 72.648L863.955 71.88C863.283 71.048 862.403 70.552 861.075 70.552C859.395 70.552 858.131 71.352 858.131 72.984C858.131 74.52 859.267 75.144 860.787 75.368L861.443 75.464C862.531 75.624 862.883 76.12 862.883 76.76C862.883 77.608 862.243 78.104 861.155 78.104C860.115 78.104 859.347 77.64 858.707 76.84L857.795 77.576C858.531 78.552 859.539 79.192 861.059 79.192ZM869.69 79V77.88H868.01V71.864H869.818V70.744H868.01V68.456H866.858V69.992C866.858 70.552 866.682 70.744 866.138 70.744H865.37V71.864H866.73V77.64C866.73 78.44 867.21 79 868.09 79H869.69ZM873.156 79V73.4C873.156 72.616 873.988 72.024 875.364 72.024H876.116V70.744H875.62C874.276 70.744 873.524 71.48 873.236 72.264H873.156V70.744H871.876V79H873.156ZM880.995 76.36L880.547 77.704H880.467L880.083 76.36L878.099 70.744H876.819L879.907 79.32L879.283 81.08H877.987V82.2H878.643C879.859 82.2 880.195 81.912 880.563 80.92L884.259 70.744H882.995L880.995 76.36Z" fill="#393939"/>
<path d="M80.0501 147.288C82.8341 147.288 84.8741 145.824 85.9301 143.472L84.3221 142.464C83.6501 144.288 82.1861 145.488 80.0501 145.488C77.1701 145.488 75.4661 143.4 75.4661 139.968V137.472C75.4661 134.04 77.1701 131.76 80.0501 131.76C82.1141 131.76 83.5061 132.888 84.1781 134.616L85.8101 133.632C84.7541 131.304 82.8341 129.96 80.0501 129.96C75.8261 129.96 73.3061 133.128 73.3061 138.72C73.3061 144.312 75.8261 147.288 80.0501 147.288ZM90.7803 147V138.6C90.7803 137.424 92.0283 136.536 94.0923 136.536H95.2203V134.616H94.4763C92.4603 134.616 91.3323 135.72 90.9003 136.896H90.7803V134.616H88.8603V147H90.7803ZM102.212 147.288C104.54 147.288 106.316 146.136 107.108 144.456L105.74 143.472C105.092 144.84 103.892 145.608 102.332 145.608C100.028 145.608 98.6596 144 98.6596 141.864V141.288H107.564V140.376C107.564 136.872 105.524 134.328 102.212 134.328C98.8516 134.328 96.6436 136.872 96.6436 140.808C96.6436 144.744 98.8516 147.288 102.212 147.288ZM102.212 135.936C104.18 135.936 105.5 137.4 105.5 139.584V139.848H98.6596V139.68C98.6596 137.52 100.124 135.936 102.212 135.936ZM120.807 147V145.32H119.392V138.504C119.392 135.888 117.616 134.328 114.64 134.328C112.408 134.328 110.92 135.432 110.248 136.752L111.4 137.832C112.072 136.704 113.056 135.984 114.544 135.984C116.512 135.984 117.472 136.944 117.472 138.696V139.92H115.023C111.424 139.92 109.744 141.216 109.744 143.544C109.744 145.848 111.28 147.288 113.896 147.288C115.624 147.288 116.944 146.496 117.472 144.984H117.592C117.736 146.136 118.312 147 119.728 147H120.807ZM114.208 145.656C112.72 145.656 111.76 144.96 111.76 143.736V143.232C111.76 142.032 112.744 141.36 114.928 141.36H117.472V143.4C117.472 144.672 116.104 145.656 114.208 145.656ZM128.684 147V145.32H126.164V136.296H128.876V134.616H126.164V131.184H124.436V133.488C124.436 134.328 124.172 134.616 123.356 134.616H122.204V136.296H124.244V144.96C124.244 146.16 124.964 147 126.284 147H128.684ZM136.524 147.288C138.852 147.288 140.628 146.136 141.42 144.456L140.052 143.472C139.404 144.84 138.204 145.608 136.644 145.608C134.34 145.608 132.972 144 132.972 141.864V141.288H141.876V140.376C141.876 136.872 139.836 134.328 136.524 134.328C133.164 134.328 130.956 136.872 130.956 140.808C130.956 144.744 133.164 147.288 136.524 147.288ZM136.524 135.936C138.492 135.936 139.812 137.4 139.812 139.584V139.848H132.972V139.68C132.972 137.52 134.436 135.936 136.524 135.936Z" fill="#161616"/>
<path d="M69.206 364V362.224H60.998V356.416H68.726V354.64H60.998V349.024H69.206V347.248H58.982V364H69.206ZM71.2462 364H73.3822L76.8622 359.152H76.9342L80.1502 364H82.4062L77.9422 357.616L82.3102 351.616H80.1742L76.9102 356.224H76.8382L73.6942 351.616H71.4382L75.8302 357.76L71.2462 364ZM89.321 364.288C91.649 364.288 93.425 363.136 94.217 361.456L92.849 360.472C92.201 361.84 91.001 362.608 89.441 362.608C87.137 362.608 85.769 361 85.769 358.864V358.288H94.673V357.376C94.673 353.872 92.633 351.328 89.321 351.328C85.961 351.328 83.753 353.872 83.753 357.808C83.753 361.744 85.961 364.288 89.321 364.288ZM89.321 352.936C91.289 352.936 92.609 354.4 92.609 356.584V356.848H85.769V356.68C85.769 354.52 87.233 352.936 89.321 352.936ZM102.445 364.288C104.797 364.288 106.405 363.136 107.197 361.36L105.805 360.424C105.133 361.84 104.005 362.584 102.445 362.584C100.165 362.584 98.9889 361.024 98.9889 358.864V356.752C98.9889 354.592 100.165 353.032 102.445 353.032C103.957 353.032 105.013 353.776 105.469 355.048L107.077 354.232C106.357 352.528 104.893 351.328 102.445 351.328C98.9649 351.328 96.9249 353.848 96.9249 357.808C96.9249 361.768 98.9649 364.288 102.445 364.288ZM117.539 364H119.459V351.616H117.539V360.184C117.539 361.816 116.051 362.56 114.539 362.56C112.691 362.56 111.707 361.432 111.707 359.224V351.616H109.787V359.56C109.787 362.56 111.419 364.288 113.963 364.288C116.027 364.288 116.963 363.16 117.443 361.984H117.539V364ZM128.684 364V362.32H126.164V353.296H128.876V351.616H126.164V348.184H124.436V350.488C124.436 351.328 124.172 351.616 123.356 351.616H122.204V353.296H124.244V361.96C124.244 363.16 124.964 364 126.284 364H128.684ZM136.524 364.288C138.852 364.288 140.628 363.136 141.42 361.456L140.052 360.472C139.404 361.84 138.204 362.608 136.644 362.608C134.34 362.608 132.972 361 132.972 358.864V358.288H141.876V357.376C141.876 353.872 139.836 351.328 136.524 351.328C133.164 351.328 130.956 353.872 130.956 357.808C130.956 361.744 133.164 364.288 136.524 364.288ZM136.524 352.936C138.492 352.936 139.812 354.4 139.812 356.584V356.848H132.972V356.68C132.972 354.52 134.436 352.936 136.524 352.936Z" fill="#161616"/>
<rect x="233" y="332" width="180" height="62" fill="#F4F4F4" stroke="#0F62FE" stroke-width="2" stroke-dasharray="2 3"/>
<path d="M276.887 368.12H275.175V367.08C277.495 366.632 278.935 364.696 278.935 361.416C278.935 357.64 277.015 355.64 274.071 355.64C271.143 355.64 269.207 357.64 269.207 361.416C269.207 364.792 270.759 366.76 273.191 367.128V367.8C273.191 369.096 273.863 369.848 275.335 369.848H276.887V368.12ZM274.071 365.32C272.471 365.32 271.447 364.184 271.447 362.28V360.552C271.447 358.648 272.471 357.512 274.071 357.512C275.671 357.512 276.695 358.648 276.695 360.552V362.28C276.695 364.184 275.671 365.32 274.071 365.32ZM281.974 357.432C282.806 357.432 283.174 357 283.174 356.408V356.088C283.174 355.496 282.806 355.064 281.974 355.064C281.126 355.064 280.774 355.496 280.774 356.088V356.408C280.774 357 281.126 357.432 281.974 357.432ZM280.95 367H282.998V358.648H280.95V367ZM288.108 367.192C290.188 367.192 291.548 366.072 291.548 364.456C291.548 363.064 290.668 362.248 288.844 361.992L287.996 361.88C287.212 361.752 286.908 361.496 286.908 360.936C286.908 360.424 287.292 360.072 288.172 360.072C288.988 360.072 289.692 360.456 290.172 360.968L291.372 359.768C290.572 358.936 289.74 358.456 288.108 358.456C286.204 358.456 284.94 359.48 284.94 361.096C284.94 362.616 285.932 363.4 287.724 363.624L288.556 363.736C289.292 363.832 289.58 364.136 289.58 364.616C289.58 365.208 289.164 365.576 288.188 365.576C287.244 365.576 286.508 365.144 285.9 364.44L284.652 365.656C285.484 366.616 286.524 367.192 288.108 367.192ZM293.356 367H295.404V364.456L296.508 363.256L298.652 367H301.084L297.9 361.88L300.78 358.648H298.46L296.588 360.792L295.484 362.296H295.404V355.16H293.356V367ZM303.364 357.432C304.196 357.432 304.564 357 304.564 356.408V356.088C304.564 355.496 304.196 355.064 303.364 355.064C302.516 355.064 302.164 355.496 302.164 356.088V356.408C302.164 357 302.516 357.432 303.364 357.432ZM302.34 367H304.388V358.648H302.34V367ZM309.37 367H310.842V365.368H309.258V360.28H310.97V358.648H309.258V356.36H307.418V357.784C307.418 358.36 307.226 358.648 306.618 358.648H305.978V360.28H307.21V364.872C307.21 366.232 307.962 367 309.37 367ZM318.768 367V362.744H321.68C323.744 362.744 324.992 361.368 324.992 359.288C324.992 357.224 323.744 355.832 321.68 355.832H316.656V367H318.768ZM318.768 357.672H321.488C322.304 357.672 322.8 358.104 322.8 358.92V359.656C322.8 360.472 322.304 360.92 321.488 360.92H318.768V357.672ZM328.67 367V361.88C328.67 360.968 329.39 360.584 330.766 360.584H331.406V358.648H330.958C329.63 358.648 328.958 359.496 328.75 360.376H328.67V358.648H326.622V367H328.67ZM336.137 367.192C338.537 367.192 340.025 365.496 340.025 362.808C340.025 360.136 338.537 358.456 336.137 358.456C333.753 358.456 332.265 360.136 332.265 362.808C332.265 365.496 333.753 367.192 336.137 367.192ZM336.137 365.544C335.081 365.544 334.409 364.856 334.409 363.592V362.04C334.409 360.792 335.081 360.104 336.137 360.104C337.209 360.104 337.881 360.792 337.881 362.04V363.592C337.881 364.856 337.209 365.544 336.137 365.544ZM349.376 367.704C349.376 366.2 348.496 365.32 346.448 365.32H344.208C343.472 365.32 343.12 365.112 343.12 364.696C343.12 364.328 343.392 364.088 343.712 363.944C344.08 364.04 344.512 364.088 344.992 364.088C347.264 364.088 348.448 362.968 348.448 361.288C348.448 360.264 348.016 359.448 347.152 358.968V358.744H348.928V357.176H347.632C346.864 357.176 346.448 357.576 346.448 358.392V358.664C346.032 358.52 345.504 358.456 344.992 358.456C342.736 358.456 341.536 359.592 341.536 361.288C341.536 362.392 342.048 363.256 343.056 363.72V363.784C342.256 363.96 341.52 364.392 341.52 365.256C341.52 365.928 341.904 366.472 342.592 366.648V366.824C341.664 366.968 341.104 367.496 341.104 368.424C341.104 369.656 342.176 370.392 344.992 370.392C348.192 370.392 349.376 369.448 349.376 367.704ZM347.456 367.944C347.456 368.648 346.864 368.984 345.536 368.984H344.512C343.232 368.984 342.752 368.6 342.752 367.96C342.752 367.624 342.88 367.32 343.184 367.096H346.032C347.072 367.096 347.456 367.416 347.456 367.944ZM344.992 362.696C344.016 362.696 343.488 362.248 343.488 361.416V361.144C343.488 360.296 344.016 359.864 344.992 359.864C345.968 359.864 346.496 360.296 346.496 361.144V361.416C346.496 362.248 345.968 362.696 344.992 362.696ZM352.607 367V361.88C352.607 360.968 353.327 360.584 354.703 360.584H355.343V358.648H354.895C353.567 358.648 352.895 359.496 352.687 360.376H352.607V358.648H350.559V367H352.607ZM358.732 367.192C359.98 367.192 360.892 366.632 361.164 365.56H361.26C361.388 366.424 361.932 367 362.812 367H363.948V365.368H363.116V361.432C363.116 359.528 361.916 358.456 359.66 358.456C357.98 358.456 357.004 359.096 356.396 360.056L357.612 361.144C358.012 360.568 358.556 360.088 359.516 360.088C360.604 360.088 361.068 360.632 361.068 361.56V362.168H359.644C357.372 362.168 356.076 363.016 356.076 364.728C356.076 366.216 357.036 367.192 358.732 367.192ZM359.42 365.704C358.62 365.704 358.156 365.368 358.156 364.696V364.424C358.156 363.768 358.684 363.4 359.756 363.4H361.068V364.504C361.068 365.288 360.332 365.704 359.42 365.704ZM367.654 367V361.48C367.654 360.584 368.422 360.136 369.206 360.136C370.118 360.136 370.55 360.728 370.55 361.928V367H372.598V361.48C372.598 360.584 373.35 360.136 374.15 360.136C375.062 360.136 375.494 360.728 375.494 361.928V367H377.542V361.72C377.542 359.64 376.614 358.456 374.982 358.456C373.654 358.456 372.726 359.208 372.422 360.136H372.39C371.99 359.016 371.11 358.456 369.974 358.456C368.726 358.456 368.054 359.16 367.734 360.04H367.654V358.648H365.606V367H367.654Z" fill="#161616"/>
<rect x="727" y="349" width="180" height="62" fill="#F4F4F4" stroke="#0F62FE" stroke-width="2"/>
<path d="M770.887 386.12H769.175V385.08C771.495 384.632 772.935 382.696 772.935 379.416C772.935 375.64 771.015 373.64 768.071 373.64C765.143 373.64 763.207 375.64 763.207 379.416C763.207 382.792 764.759 384.76 767.191 385.128V385.8C767.191 387.096 767.863 387.848 769.335 387.848H770.887V386.12ZM768.071 383.32C766.471 383.32 765.447 382.184 765.447 380.28V378.552C765.447 376.648 766.471 375.512 768.071 375.512C769.671 375.512 770.695 376.648 770.695 378.552V380.28C770.695 382.184 769.671 383.32 768.071 383.32ZM775.974 375.432C776.806 375.432 777.174 375 777.174 374.408V374.088C777.174 373.496 776.806 373.064 775.974 373.064C775.126 373.064 774.774 373.496 774.774 374.088V374.408C774.774 375 775.126 375.432 775.974 375.432ZM774.95 385H776.998V376.648H774.95V385ZM782.108 385.192C784.188 385.192 785.548 384.072 785.548 382.456C785.548 381.064 784.668 380.248 782.844 379.992L781.996 379.88C781.212 379.752 780.908 379.496 780.908 378.936C780.908 378.424 781.292 378.072 782.172 378.072C782.988 378.072 783.692 378.456 784.172 378.968L785.372 377.768C784.572 376.936 783.74 376.456 782.108 376.456C780.204 376.456 778.94 377.48 778.94 379.096C778.94 380.616 779.932 381.4 781.724 381.624L782.556 381.736C783.292 381.832 783.58 382.136 783.58 382.616C783.58 383.208 783.164 383.576 782.188 383.576C781.244 383.576 780.508 383.144 779.9 382.44L778.652 383.656C779.484 384.616 780.524 385.192 782.108 385.192ZM787.356 385H789.404V382.456L790.508 381.256L792.652 385H795.084L791.9 379.88L794.78 376.648H792.46L790.588 378.792L789.484 380.296H789.404V373.16H787.356V385ZM797.364 375.432C798.196 375.432 798.564 375 798.564 374.408V374.088C798.564 373.496 798.196 373.064 797.364 373.064C796.516 373.064 796.164 373.496 796.164 374.088V374.408C796.164 375 796.516 375.432 797.364 375.432ZM796.34 385H798.388V376.648H796.34V385ZM803.37 385H804.842V383.368H803.258V378.28H804.97V376.648H803.258V374.36H801.418V375.784C801.418 376.36 801.226 376.648 800.618 376.648H799.978V378.28H801.21V382.872C801.21 384.232 801.962 385 803.37 385ZM812.768 385V380.744H815.68C817.744 380.744 818.992 379.368 818.992 377.288C818.992 375.224 817.744 373.832 815.68 373.832H810.656V385H812.768ZM812.768 375.672H815.488C816.304 375.672 816.8 376.104 816.8 376.92V377.656C816.8 378.472 816.304 378.92 815.488 378.92H812.768V375.672ZM822.67 385V379.88C822.67 378.968 823.39 378.584 824.766 378.584H825.406V376.648H824.958C823.63 376.648 822.958 377.496 822.75 378.376H822.67V376.648H820.622V385H822.67ZM830.137 385.192C832.537 385.192 834.025 383.496 834.025 380.808C834.025 378.136 832.537 376.456 830.137 376.456C827.753 376.456 826.265 378.136 826.265 380.808C826.265 383.496 827.753 385.192 830.137 385.192ZM830.137 383.544C829.081 383.544 828.409 382.856 828.409 381.592V380.04C828.409 378.792 829.081 378.104 830.137 378.104C831.209 378.104 831.881 378.792 831.881 380.04V381.592C831.881 382.856 831.209 383.544 830.137 383.544ZM843.376 385.704C843.376 384.2 842.496 383.32 840.448 383.32H838.208C837.472 383.32 837.12 383.112 837.12 382.696C837.12 382.328 837.392 382.088 837.712 381.944C838.08 382.04 838.512 382.088 838.992 382.088C841.264 382.088 842.448 380.968 842.448 379.288C842.448 378.264 842.016 377.448 841.152 376.968V376.744H842.928V375.176H841.632C840.864 375.176 840.448 375.576 840.448 376.392V376.664C840.032 376.52 839.504 376.456 838.992 376.456C836.736 376.456 835.536 377.592 835.536 379.288C835.536 380.392 836.048 381.256 837.056 381.72V381.784C836.256 381.96 835.52 382.392 835.52 383.256C835.52 383.928 835.904 384.472 836.592 384.648V384.824C835.664 384.968 835.104 385.496 835.104 386.424C835.104 387.656 836.176 388.392 838.992 388.392C842.192 388.392 843.376 387.448 843.376 385.704ZM841.456 385.944C841.456 386.648 840.864 386.984 839.536 386.984H838.512C837.232 386.984 836.752 386.6 836.752 385.96C836.752 385.624 836.88 385.32 837.184 385.096H840.032C841.072 385.096 841.456 385.416 841.456 385.944ZM838.992 380.696C838.016 380.696 837.488 380.248 837.488 379.416V379.144C837.488 378.296 838.016 377.864 838.992 377.864C839.968 377.864 840.496 378.296 840.496 379.144V379.416C840.496 380.248 839.968 380.696 838.992 380.696ZM846.607 385V379.88C846.607 378.968 847.327 378.584 848.703 378.584H849.343V376.648H848.895C847.567 376.648 846.895 377.496 846.687 378.376H846.607V376.648H844.559V385H846.607ZM852.732 385.192C853.98 385.192 854.892 384.632 855.164 383.56H855.26C855.388 384.424 855.932 385 856.812 385H857.948V383.368H857.116V379.432C857.116 377.528 855.916 376.456 853.66 376.456C851.98 376.456 851.004 377.096 850.396 378.056L851.612 379.144C852.012 378.568 852.556 378.088 853.516 378.088C854.604 378.088 855.068 378.632 855.068 379.56V380.168H853.644C851.372 380.168 850.076 381.016 850.076 382.728C850.076 384.216 851.036 385.192 852.732 385.192ZM853.42 383.704C852.62 383.704 852.156 383.368 852.156 382.696V382.424C852.156 381.768 852.684 381.4 853.756 381.4H855.068V382.504C855.068 383.288 854.332 383.704 853.42 383.704ZM861.654 385V379.48C861.654 378.584 862.422 378.136 863.206 378.136C864.118 378.136 864.55 378.728 864.55 379.928V385H866.598V379.48C866.598 378.584 867.35 378.136 868.15 378.136C869.062 378.136 869.494 378.728 869.494 379.928V385H871.542V379.72C871.542 377.64 870.614 376.456 868.982 376.456C867.654 376.456 866.726 377.208 866.422 378.136H866.39C865.99 377.016 865.11 376.456 863.974 376.456C862.726 376.456 862.054 377.16 861.734 378.04H861.654V376.648H859.606V385H861.654Z" fill="#161616"/>
<path d="M772.761 312.504H771.049V311.144C773.497 310.808 775.033 308.824 775.033 305.416C775.033 301.672 773.177 299.64 770.297 299.64C767.417 299.64 765.561 301.672 765.561 305.416C765.561 308.92 767.193 310.936 769.769 311.176V312.312C769.769 313.064 770.233 313.624 771.113 313.624H772.761V312.504ZM770.297 309.992C768.361 309.992 767.001 308.552 767.001 306.344V304.488C767.001 302.28 768.361 300.84 770.297 300.84C772.233 300.84 773.593 302.28 773.593 304.488V306.344C773.593 308.552 772.233 309.992 770.297 309.992ZM777.961 300.808C778.505 300.808 778.745 300.52 778.745 300.088V299.88C778.745 299.448 778.505 299.16 777.961 299.16C777.417 299.16 777.177 299.448 777.177 299.88V300.088C777.177 300.52 777.417 300.808 777.961 300.808ZM777.321 311H778.601V302.744H777.321V311ZM783.801 311.192C785.689 311.192 786.857 310.216 786.857 308.616C786.857 307.368 786.153 306.568 784.329 306.296L783.689 306.2C782.665 306.04 782.105 305.72 782.105 304.92C782.105 304.136 782.665 303.64 783.721 303.64C784.777 303.64 785.481 304.136 785.849 304.648L786.697 303.88C786.025 303.048 785.145 302.552 783.817 302.552C782.137 302.552 780.873 303.352 780.873 304.984C780.873 306.52 782.009 307.144 783.529 307.368L784.185 307.464C785.273 307.624 785.625 308.12 785.625 308.76C785.625 309.608 784.985 310.104 783.897 310.104C782.857 310.104 782.089 309.64 781.449 308.84L780.537 309.576C781.273 310.552 782.281 311.192 783.801 311.192ZM789.118 311H790.398V308.056L791.63 306.792L794.366 311H795.918L792.558 306.008L795.614 302.744H794.062L791.726 305.256L790.462 306.664H790.398V299.16H789.118V311ZM798.195 300.808C798.739 300.808 798.979 300.52 798.979 300.088V299.88C798.979 299.448 798.739 299.16 798.195 299.16C797.651 299.16 797.411 299.448 797.411 299.88V300.088C797.411 300.52 797.651 300.808 798.195 300.808ZM797.555 311H798.835V302.744H797.555V311ZM804.979 311V309.88H803.299V303.864H805.107V302.744H803.299V300.456H802.147V301.992C802.147 302.552 801.971 302.744 801.427 302.744H800.659V303.864H802.019V309.64C802.019 310.44 802.499 311 803.379 311H804.979ZM812.418 306.2H815.026L817.442 311H818.962L816.402 306.072C817.858 305.736 818.642 304.632 818.642 303C818.642 300.968 817.474 299.832 815.522 299.832H811.074V311H812.418V306.2ZM812.418 305.048V301.016H815.522C816.578 301.016 817.202 301.592 817.202 302.616V303.448C817.202 304.472 816.578 305.048 815.522 305.048H812.418ZM826.268 311H827.548V302.744H826.268V308.456C826.268 309.544 825.276 310.04 824.268 310.04C823.036 310.04 822.38 309.288 822.38 307.816V302.744H821.1V308.04C821.1 310.04 822.188 311.192 823.884 311.192C825.26 311.192 825.884 310.44 826.204 309.656H826.268V311ZM831.554 311V305.272C831.554 304.216 832.546 303.704 833.57 303.704C834.802 303.704 835.442 304.456 835.442 305.928V311H836.722V305.704C836.722 303.704 835.65 302.552 833.954 302.552C832.722 302.552 832.018 303.16 831.618 304.088H831.554V302.744H830.274V311H831.554ZM842.792 311V309.88H841.112V303.864H842.92V302.744H841.112V300.456H839.96V301.992C839.96 302.552 839.784 302.744 839.24 302.744H838.472V303.864H839.832V309.64C839.832 310.44 840.312 311 841.192 311H842.792ZM845.617 300.808C846.161 300.808 846.401 300.52 846.401 300.088V299.88C846.401 299.448 846.161 299.16 845.617 299.16C845.073 299.16 844.833 299.448 844.833 299.88V300.088C844.833 300.52 845.073 300.808 845.617 300.808ZM844.977 311H846.257V302.744H844.977V311ZM850.257 311V305.272C850.257 304.216 851.217 303.704 852.225 303.704C853.441 303.704 854.001 304.456 854.001 305.928V311H855.281V305.272C855.281 304.216 856.209 303.704 857.217 303.704C858.465 303.704 859.025 304.472 859.025 305.928V311H860.305V305.704C860.305 303.704 859.297 302.552 857.617 302.552C856.209 302.552 855.409 303.336 855.105 304.232H855.073C854.625 303.048 853.633 302.552 852.545 302.552C851.265 302.552 850.689 303.24 850.321 304.088H850.257V302.744H848.977V311H850.257ZM866.05 311.192C867.602 311.192 868.786 310.424 869.314 309.304L868.402 308.648C867.97 309.56 867.17 310.072 866.13 310.072C864.594 310.072 863.682 309 863.682 307.576V307.192H869.618V306.584C869.618 304.248 868.258 302.552 866.05 302.552C863.81 302.552 862.338 304.248 862.338 306.872C862.338 309.496 863.81 311.192 866.05 311.192ZM866.05 303.624C867.362 303.624 868.242 304.6 868.242 306.056V306.232H863.682V306.12C863.682 304.68 864.658 303.624 866.05 303.624Z" fill="#393939"/>
<path d="M427 144L801 144" stroke="url(#paint0_linear)" stroke-width="2"/>
<path d="M425 345L627 345" stroke="url(#paint1_linear)" stroke-width="2"/>
<path d="M422 380H716" stroke="#0F62FE" stroke-width="2"/>
<path d="M916 380L1043 380" stroke="#0F62FE" stroke-width="2"/>
<path d="M801 113L801 177" stroke="#0F62FE" stroke-width="2"/>
<path d="M484.659 360.356C485.067 360.356 485.247 360.14 485.247 359.816V359.66C485.247 359.336 485.067 359.12 484.659 359.12C484.251 359.12 484.071 359.336 484.071 359.66V359.816C484.071 360.14 484.251 360.356 484.659 360.356ZM484.179 368H485.139V361.808H484.179V368ZM490.067 368V367.16H488.807V362.648H490.163V361.808H488.807V360.092H487.943V361.244C487.943 361.664 487.811 361.808 487.403 361.808H486.827V362.648H487.847V366.98C487.847 367.58 488.207 368 488.867 368H490.067ZM494.308 368.144C495.472 368.144 496.36 367.568 496.756 366.728L496.072 366.236C495.748 366.92 495.148 367.304 494.368 367.304C493.216 367.304 492.532 366.5 492.532 365.432V365.144H496.984V364.688C496.984 362.936 495.964 361.664 494.308 361.664C492.628 361.664 491.524 362.936 491.524 364.904C491.524 366.872 492.628 368.144 494.308 368.144ZM494.308 362.468C495.292 362.468 495.952 363.2 495.952 364.292V364.424H492.532V364.34C492.532 363.26 493.264 362.468 494.308 362.468ZM499.846 368V363.8C499.846 363.212 500.47 362.768 501.502 362.768H502.066V361.808H501.694C500.686 361.808 500.122 362.36 499.906 362.948H499.846V361.808H498.886V368H499.846ZM508.605 368V367.16H507.897V363.752C507.897 362.444 507.009 361.664 505.521 361.664C504.405 361.664 503.661 362.216 503.325 362.876L503.901 363.416C504.237 362.852 504.729 362.492 505.473 362.492C506.457 362.492 506.937 362.972 506.937 363.848V364.46H505.713C503.913 364.46 503.073 365.108 503.073 366.272C503.073 367.424 503.841 368.144 505.149 368.144C506.013 368.144 506.673 367.748 506.937 366.992H506.997C507.069 367.568 507.357 368 508.065 368H508.605ZM505.305 367.328C504.561 367.328 504.081 366.98 504.081 366.368V366.116C504.081 365.516 504.573 365.18 505.665 365.18H506.937V366.2C506.937 366.836 506.253 367.328 505.305 367.328ZM512.863 368V367.16H511.603V362.648H512.959V361.808H511.603V360.092H510.739V361.244C510.739 361.664 510.607 361.808 510.199 361.808H509.623V362.648H510.643V366.98C510.643 367.58 511.003 368 511.663 368H512.863ZM515.302 360.356C515.71 360.356 515.89 360.14 515.89 359.816V359.66C515.89 359.336 515.71 359.12 515.302 359.12C514.894 359.12 514.714 359.336 514.714 359.66V359.816C514.714 360.14 514.894 360.356 515.302 360.356ZM514.822 368H515.782V361.808H514.822V368ZM520.626 368L522.81 361.808H521.886L520.782 364.88L520.11 366.992H520.05L519.378 364.88L518.298 361.808H517.338L519.51 368H520.626ZM526.603 368.144C527.767 368.144 528.655 367.568 529.051 366.728L528.367 366.236C528.043 366.92 527.443 367.304 526.663 367.304C525.511 367.304 524.827 366.5 524.827 365.432V365.144H529.279V364.688C529.279 362.936 528.259 361.664 526.603 361.664C524.923 361.664 523.819 362.936 523.819 364.904C523.819 366.872 524.923 368.144 526.603 368.144ZM526.603 362.468C527.587 362.468 528.247 363.2 528.247 364.292V364.424H524.827V364.34C524.827 363.26 525.559 362.468 526.603 362.468Z" fill="#525252"/>
<path d="M499.881 333.144C501.057 333.144 501.861 332.568 502.257 331.68L501.561 331.212C501.225 331.92 500.661 332.292 499.881 332.292C498.741 332.292 498.153 331.512 498.153 330.432V329.376C498.153 328.296 498.741 327.516 499.881 327.516C500.637 327.516 501.165 327.888 501.393 328.524L502.197 328.116C501.837 327.264 501.105 326.664 499.881 326.664C498.141 326.664 497.121 327.924 497.121 329.904C497.121 331.884 498.141 333.144 499.881 333.144ZM508.972 333V332.16H508.264V328.752C508.264 327.444 507.376 326.664 505.888 326.664C504.772 326.664 504.028 327.216 503.692 327.876L504.268 328.416C504.604 327.852 505.096 327.492 505.84 327.492C506.824 327.492 507.304 327.972 507.304 328.848V329.46H506.08C504.28 329.46 503.44 330.108 503.44 331.272C503.44 332.424 504.208 333.144 505.516 333.144C506.38 333.144 507.04 332.748 507.304 331.992H507.364C507.436 332.568 507.724 333 508.432 333H508.972ZM505.672 332.328C504.928 332.328 504.448 331.98 504.448 331.368V331.116C504.448 330.516 504.94 330.18 506.032 330.18H507.304V331.2C507.304 331.836 506.62 332.328 505.672 332.328ZM512.534 333V332.16H511.622V324.12H510.662V332.004C510.662 332.58 511.022 333 511.682 333H512.534ZM516.065 333V332.16H515.153V324.12H514.193V332.004C514.193 332.58 514.553 333 515.213 333H516.065Z" fill="#525252"/>
<path d="M491.968 132H492.928V125.808H491.968V130.092C491.968 130.908 491.224 131.28 490.468 131.28C489.544 131.28 489.052 130.716 489.052 129.612V125.808H488.092V129.78C488.092 131.28 488.908 132.144 490.18 132.144C491.212 132.144 491.68 131.58 491.92 130.992H491.968V132ZM495.292 134.4H496.252V130.992H496.3C496.672 131.76 497.26 132.144 498.112 132.144C499.66 132.144 500.632 130.884 500.632 128.904C500.632 126.924 499.66 125.664 498.112 125.664C497.26 125.664 496.624 126.036 496.3 126.816H496.252V125.808H495.292V134.4ZM497.848 131.28C496.972 131.28 496.252 130.824 496.252 130.02V127.716C496.252 127.032 496.972 126.528 497.848 126.528C498.928 126.528 499.6 127.272 499.6 128.376V129.432C499.6 130.536 498.928 131.28 497.848 131.28ZM504.445 132V131.16H503.533V123.12H502.573V131.004C502.573 131.58 502.933 132 503.593 132H504.445ZM508.502 132.144C510.158 132.144 511.298 130.872 511.298 128.904C511.298 126.936 510.158 125.664 508.502 125.664C506.846 125.664 505.706 126.936 505.706 128.904C505.706 130.872 506.846 132.144 508.502 132.144ZM508.502 131.292C507.47 131.292 506.738 130.656 506.738 129.348V128.46C506.738 127.152 507.47 126.516 508.502 126.516C509.534 126.516 510.266 127.152 510.266 128.46V129.348C510.266 130.656 509.534 131.292 508.502 131.292ZM518.237 132V131.16H517.529V127.752C517.529 126.444 516.641 125.664 515.153 125.664C514.037 125.664 513.293 126.216 512.957 126.876L513.533 127.416C513.869 126.852 514.361 126.492 515.105 126.492C516.089 126.492 516.569 126.972 516.569 127.848V128.46H515.345C513.545 128.46 512.705 129.108 512.705 130.272C512.705 131.424 513.473 132.144 514.781 132.144C515.645 132.144 516.305 131.748 516.569 130.992H516.629C516.701 131.568 516.989 132 517.697 132H518.237ZM514.937 131.328C514.193 131.328 513.713 130.98 513.713 130.368V130.116C513.713 129.516 514.205 129.18 515.297 129.18H516.569V130.2C516.569 130.836 515.885 131.328 514.937 131.328ZM523.887 132H524.847V123.12H523.887V126.816H523.839C523.515 126.036 522.879 125.664 522.027 125.664C520.479 125.664 519.507 126.924 519.507 128.904C519.507 130.884 520.479 132.144 522.027 132.144C522.879 132.144 523.467 131.76 523.839 130.992H523.887V132ZM522.291 131.28C521.211 131.28 520.539 130.536 520.539 129.432V128.376C520.539 127.272 521.211 126.528 522.291 126.528C523.167 126.528 523.887 127.032 523.887 127.716V130.02C523.887 130.824 523.167 131.28 522.291 131.28Z" fill="#525252"/>
<path d="M503.208 79L499.304 67.832H497.592L493.688 79H495.048L496.168 75.704H500.68L501.8 79H503.208ZM500.344 74.52H496.488L498.376 69.08H498.456L500.344 74.52ZM506.402 79V74.232H509.506C511.506 74.232 512.626 73 512.626 71.032C512.626 69.064 511.506 67.832 509.506 67.832H505.058V79H506.402ZM506.402 69.016H509.506C510.562 69.016 511.186 69.592 511.186 70.616V71.448C511.186 72.472 510.562 73.048 509.506 73.048H506.402V69.016ZM518.713 79V77.88H517.145V68.952H518.713V67.832H514.233V68.952H515.801V77.88H514.233V79H518.713Z" fill="#393939"/>
<path d="M727.776 227.504H726.064V226.144C728.512 225.808 730.048 223.824 730.048 220.416C730.048 216.672 728.192 214.64 725.312 214.64C722.432 214.64 720.576 216.672 720.576 220.416C720.576 223.92 722.208 225.936 724.784 226.176V227.312C724.784 228.064 725.248 228.624 726.128 228.624H727.776V227.504ZM725.312 224.992C723.376 224.992 722.016 223.552 722.016 221.344V219.488C722.016 217.28 723.376 215.84 725.312 215.84C727.248 215.84 728.608 217.28 728.608 219.488V221.344C728.608 223.552 727.248 224.992 725.312 224.992ZM732.977 215.808C733.521 215.808 733.761 215.52 733.761 215.088V214.88C733.761 214.448 733.521 214.16 732.977 214.16C732.433 214.16 732.193 214.448 732.193 214.88V215.088C732.193 215.52 732.433 215.808 732.977 215.808ZM732.337 226H733.617V217.744H732.337V226ZM738.817 226.192C740.705 226.192 741.873 225.216 741.873 223.616C741.873 222.368 741.169 221.568 739.345 221.296L738.705 221.2C737.681 221.04 737.121 220.72 737.121 219.92C737.121 219.136 737.681 218.64 738.737 218.64C739.793 218.64 740.497 219.136 740.865 219.648L741.713 218.88C741.041 218.048 740.161 217.552 738.833 217.552C737.153 217.552 735.889 218.352 735.889 219.984C735.889 221.52 737.025 222.144 738.545 222.368L739.201 222.464C740.289 222.624 740.641 223.12 740.641 223.76C740.641 224.608 740.001 225.104 738.913 225.104C737.873 225.104 737.105 224.64 736.465 223.84L735.553 224.576C736.289 225.552 737.297 226.192 738.817 226.192ZM744.133 226H745.413V223.056L746.645 221.792L749.381 226H750.933L747.573 221.008L750.629 217.744H749.077L746.741 220.256L745.477 221.664H745.413V214.16H744.133V226ZM753.211 215.808C753.755 215.808 753.995 215.52 753.995 215.088V214.88C753.995 214.448 753.755 214.16 753.211 214.16C752.667 214.16 752.427 214.448 752.427 214.88V215.088C752.427 215.52 752.667 215.808 753.211 215.808ZM752.571 226H753.851V217.744H752.571V226ZM759.995 226V224.88H758.315V218.864H760.123V217.744H758.315V215.456H757.163V216.992C757.163 217.552 756.987 217.744 756.443 217.744H755.675V218.864H757.035V224.64C757.035 225.44 757.515 226 758.395 226H759.995ZM767.434 221.2H770.042L772.458 226H773.978L771.418 221.072C772.874 220.736 773.658 219.632 773.658 218C773.658 215.968 772.49 214.832 770.538 214.832H766.09V226H767.434V221.2ZM767.434 220.048V216.016H770.538C771.594 216.016 772.218 216.592 772.218 217.616V218.448C772.218 219.472 771.594 220.048 770.538 220.048H767.434ZM781.284 226H782.564V217.744H781.284V223.456C781.284 224.544 780.292 225.04 779.284 225.04C778.052 225.04 777.396 224.288 777.396 222.816V217.744H776.116V223.04C776.116 225.04 777.204 226.192 778.9 226.192C780.276 226.192 780.9 225.44 781.22 224.656H781.284V226ZM786.57 226V220.272C786.57 219.216 787.562 218.704 788.586 218.704C789.818 218.704 790.458 219.456 790.458 220.928V226H791.738V220.704C791.738 218.704 790.666 217.552 788.97 217.552C787.738 217.552 787.034 218.16 786.634 219.088H786.57V217.744H785.29V226H786.57ZM797.807 226V224.88H796.127V218.864H797.935V217.744H796.127V215.456H794.975V216.992C794.975 217.552 794.799 217.744 794.255 217.744H793.487V218.864H794.847V224.64C794.847 225.44 795.327 226 796.207 226H797.807ZM800.633 215.808C801.177 215.808 801.417 215.52 801.417 215.088V214.88C801.417 214.448 801.177 214.16 800.633 214.16C800.089 214.16 799.849 214.448 799.849 214.88V215.088C799.849 215.52 800.089 215.808 800.633 215.808ZM799.993 226H801.273V217.744H799.993V226ZM805.273 226V220.272C805.273 219.216 806.233 218.704 807.241 218.704C808.457 218.704 809.017 219.456 809.017 220.928V226H810.297V220.272C810.297 219.216 811.225 218.704 812.233 218.704C813.481 218.704 814.041 219.472 814.041 220.928V226H815.321V220.704C815.321 218.704 814.313 217.552 812.633 217.552C811.225 217.552 810.425 218.336 810.121 219.232H810.089C809.641 218.048 808.649 217.552 807.561 217.552C806.281 217.552 805.705 218.24 805.337 219.088H805.273V217.744H803.993V226H805.273ZM821.066 226.192C822.618 226.192 823.802 225.424 824.33 224.304L823.418 223.648C822.986 224.56 822.186 225.072 821.146 225.072C819.61 225.072 818.698 224 818.698 222.576V222.192H824.634V221.584C824.634 219.248 823.274 217.552 821.066 217.552C818.826 217.552 817.354 219.248 817.354 221.872C817.354 224.496 818.826 226.192 821.066 226.192ZM821.066 218.624C822.378 218.624 823.258 219.6 823.258 221.056V221.232H818.698V221.12C818.698 219.68 819.674 218.624 821.066 218.624ZM830.652 226H831.964V216.592H832.044L832.988 218.464L835.66 223.328L838.332 218.464L839.276 216.592H839.356V226H840.668V214.832H838.94L835.724 220.848H835.644L832.444 214.832H830.652V226ZM850.228 226V224.88H849.284V220.336C849.284 218.592 848.1 217.552 846.116 217.552C844.628 217.552 843.636 218.288 843.188 219.168L843.956 219.888C844.404 219.136 845.06 218.656 846.052 218.656C847.364 218.656 848.004 219.296 848.004 220.464V221.28H846.372C843.972 221.28 842.852 222.144 842.852 223.696C842.852 225.232 843.876 226.192 845.62 226.192C846.772 226.192 847.652 225.664 848.004 224.656H848.084C848.18 225.424 848.564 226 849.508 226H850.228ZM845.828 225.104C844.836 225.104 844.196 224.64 844.196 223.824V223.488C844.196 222.688 844.852 222.24 846.308 222.24H848.004V223.6C848.004 224.448 847.092 225.104 845.828 225.104ZM853.335 226V220.272C853.335 219.216 854.327 218.704 855.351 218.704C856.583 218.704 857.223 219.456 857.223 220.928V226H858.503V220.704C858.503 218.704 857.431 217.552 855.735 217.552C854.503 217.552 853.799 218.16 853.399 219.088H853.335V217.744H852.055V226H853.335ZM867.869 226V224.88H866.925V220.336C866.925 218.592 865.741 217.552 863.757 217.552C862.269 217.552 861.277 218.288 860.829 219.168L861.597 219.888C862.045 219.136 862.701 218.656 863.693 218.656C865.005 218.656 865.645 219.296 865.645 220.464V221.28H864.013C861.613 221.28 860.493 222.144 860.493 223.696C860.493 225.232 861.517 226.192 863.261 226.192C864.413 226.192 865.293 225.664 865.645 224.656H865.725C865.821 225.424 866.205 226 867.149 226H867.869ZM863.469 225.104C862.477 225.104 861.837 224.64 861.837 223.824V223.488C861.837 222.688 862.493 222.24 863.949 222.24H865.645V223.6C865.645 224.448 864.733 225.104 863.469 225.104ZM876.656 226.912C876.656 225.552 875.776 224.72 873.728 224.72H871.968C871.216 224.72 870.704 224.592 870.704 224.096C870.704 223.584 871.248 223.312 871.792 223.168C872.032 223.216 872.32 223.248 872.592 223.248C874.48 223.248 875.712 222.08 875.712 220.4C875.712 219.52 875.36 218.784 874.768 218.272V217.744H876.336V216.624H875.104C874.416 216.624 874.144 217.088 874.144 217.728V217.872C873.696 217.664 873.168 217.552 872.576 217.552C870.704 217.552 869.472 218.72 869.472 220.4C869.472 221.552 870.048 222.464 871.024 222.928V222.992C870.192 223.2 869.6 223.6 869.6 224.432C869.6 224.992 869.872 225.36 870.336 225.584V225.76C869.52 225.984 869.024 226.464 869.024 227.36C869.024 228.656 870.08 229.392 872.656 229.392C875.312 229.392 876.656 228.608 876.656 226.912ZM875.456 227.008C875.456 227.904 874.624 228.352 873.2 228.352H872.016C870.72 228.352 870.224 227.76 870.224 227.04C870.224 226.528 870.464 226.16 870.992 225.92H873.744C875.024 225.92 875.456 226.352 875.456 227.008ZM872.592 222.224C871.504 222.224 870.816 221.712 870.816 220.624V220.176C870.816 219.088 871.504 218.576 872.592 218.576C873.68 218.576 874.368 219.088 874.368 220.176V220.624C874.368 221.712 873.68 222.224 872.592 222.224ZM881.159 226.192C882.711 226.192 883.895 225.424 884.423 224.304L883.511 223.648C883.079 224.56 882.279 225.072 881.239 225.072C879.703 225.072 878.791 224 878.791 222.576V222.192H884.727V221.584C884.727 219.248 883.367 217.552 881.159 217.552C878.919 217.552 877.447 219.248 877.447 221.872C877.447 224.496 878.919 226.192 881.159 226.192ZM881.159 218.624C882.471 218.624 883.351 219.6 883.351 221.056V221.232H878.791V221.12C878.791 219.68 879.767 218.624 881.159 218.624ZM888.117 226V220.4C888.117 219.616 888.949 219.024 890.325 219.024H891.077V217.744H890.581C889.237 217.744 888.485 218.48 888.197 219.264H888.117V217.744H886.837V226H888.117Z" fill="#393939"/>
<path d="M185.59 155.624V160.568C185.59 163.004 186.334 164.144 188.566 164.144C190.798 164.144 191.614 163.004 191.614 160.568V155.624H190.606V160.808C190.606 162.404 190.09 163.244 188.602 163.244C187.114 163.244 186.598 162.404 186.598 160.808V155.624H185.59ZM195.866 164.144C197.282 164.144 198.158 163.412 198.158 162.212C198.158 161.276 197.63 160.676 196.262 160.472L195.782 160.4C195.014 160.28 194.594 160.04 194.594 159.44C194.594 158.852 195.014 158.48 195.806 158.48C196.598 158.48 197.126 158.852 197.402 159.236L198.038 158.66C197.534 158.036 196.874 157.664 195.878 157.664C194.618 157.664 193.67 158.264 193.67 159.488C193.67 160.64 194.522 161.108 195.662 161.276L196.154 161.348C196.97 161.468 197.234 161.84 197.234 162.32C197.234 162.956 196.754 163.328 195.938 163.328C195.158 163.328 194.582 162.98 194.102 162.38L193.418 162.932C193.97 163.664 194.726 164.144 195.866 164.144ZM202.502 164.144C203.666 164.144 204.554 163.568 204.95 162.728L204.266 162.236C203.942 162.92 203.342 163.304 202.562 163.304C201.41 163.304 200.726 162.5 200.726 161.432V161.144H205.178V160.688C205.178 158.936 204.158 157.664 202.502 157.664C200.822 157.664 199.718 158.936 199.718 160.904C199.718 162.872 200.822 164.144 202.502 164.144ZM202.502 158.468C203.486 158.468 204.146 159.2 204.146 160.292V160.424H200.726V160.34C200.726 159.26 201.458 158.468 202.502 158.468ZM208.04 164V159.8C208.04 159.212 208.664 158.768 209.696 158.768H210.26V157.808H209.888C208.88 157.808 208.316 158.36 208.1 158.948H208.04V157.808H207.08V164H208.04Z" fill="#525252"/>
<path d="M198 118C200.8 118 203 120.2 203 123C203 125.8 200.8 128 198 128C195.2 128 193 125.8 193 123C193 120.2 195.2 118 198 118ZM198 116C194.1 116 191 119.1 191 123C191 126.9 194.1 130 198 130C201.9 130 205 126.9 205 123C205 119.1 201.9 116 198 116Z" fill="#C6C6C6"/>
<path d="M208 144H206V139C206 136.2 203.8 134 201 134H195C192.2 134 190 136.2 190 139V144H188V139C188 135.1 191.1 132 195 132H201C204.9 132 208 135.1 208 139V144Z" fill="#C6C6C6"/>
<path d="M185.59 378.624V383.568C185.59 386.004 186.334 387.144 188.566 387.144C190.798 387.144 191.614 386.004 191.614 383.568V378.624H190.606V383.808C190.606 385.404 190.09 386.244 188.602 386.244C187.114 386.244 186.598 385.404 186.598 383.808V378.624H185.59ZM195.866 387.144C197.282 387.144 198.158 386.412 198.158 385.212C198.158 384.276 197.63 383.676 196.262 383.472L195.782 383.4C195.014 383.28 194.594 383.04 194.594 382.44C194.594 381.852 195.014 381.48 195.806 381.48C196.598 381.48 197.126 381.852 197.402 382.236L198.038 381.66C197.534 381.036 196.874 380.664 195.878 380.664C194.618 380.664 193.67 381.264 193.67 382.488C193.67 383.64 194.522 384.108 195.662 384.276L196.154 384.348C196.97 384.468 197.234 384.84 197.234 385.32C197.234 385.956 196.754 386.328 195.938 386.328C195.158 386.328 194.582 385.98 194.102 385.38L193.418 385.932C193.97 386.664 194.726 387.144 195.866 387.144ZM202.502 387.144C203.666 387.144 204.554 386.568 204.95 385.728L204.266 385.236C203.942 385.92 203.342 386.304 202.562 386.304C201.41 386.304 200.726 385.5 200.726 384.432V384.144H205.178V383.688C205.178 381.936 204.158 380.664 202.502 380.664C200.822 380.664 199.718 381.936 199.718 383.904C199.718 385.872 200.822 387.144 202.502 387.144ZM202.502 381.468C203.486 381.468 204.146 382.2 204.146 383.292V383.424H200.726V383.34C200.726 382.26 201.458 381.468 202.502 381.468ZM208.04 387V382.8C208.04 382.212 208.664 381.768 209.696 381.768H210.26V380.808H209.888C208.88 380.808 208.316 381.36 208.1 381.948H208.04V380.808H207.08V387H208.04Z" fill="#525252"/>
<path d="M198 341C200.8 341 203 343.2 203 346C203 348.8 200.8 351 198 351C195.2 351 193 348.8 193 346C193 343.2 195.2 341 198 341ZM198 339C194.1 339 191 342.1 191 346C191 349.9 194.1 353 198 353C201.9 353 205 349.9 205 346C205 342.1 201.9 339 198 339Z" fill="#C6C6C6"/>
<path d="M208 367H206V362C206 359.2 203.8 357 201 357H195C192.2 357 190 359.2 190 362V367H188V362C188 358.1 191.1 355 195 355H201C204.9 355 208 358.1 208 362V367Z" fill="#C6C6C6"/>
<path d="M796 117L801 112L806 117" stroke="#0F62FE" stroke-width="2"/>
<path d="M624 340L629 345L624 350" stroke="#33B1FF" stroke-width="2"/>
<path d="M713 375L718 380L713 385" stroke="#0F62FE" stroke-width="2"/>
<path d="M1038 375L1043 380L1038 385" stroke="#0F62FE" stroke-width="2"/>
<path d="M427 385L422 380L427 375" stroke="#0F62FE" stroke-width="2"/>
<path d="M921 385L916 380L921 375" stroke="#0F62FE" stroke-width="2"/>
<path d="M806 172L801 177L796 172" stroke="#0F62FE" stroke-width="2"/>
<defs>
<linearGradient id="paint0_linear" x1="798.108" y1="143.999" x2="427" y2="144" gradientUnits="userSpaceOnUse">
<stop offset="0.645833" stop-color="#0F62FE"/>
<stop offset="1" stop-color="white"/>
</linearGradient>
<linearGradient id="paint1_linear" x1="623.477" y1="345" x2="423.238" y2="345" gradientUnits="userSpaceOnUse">
<stop offset="0.421875" stop-color="#33B1FF"/>
<stop offset="1" stop-color="white"/>
</linearGradient>
</defs>
</svg>
